<?xml version="1.0" encoding="UTF-8"?>
<svg width="183px" height="24px" viewBox="0 0 183 24" version="1.1" xmlns="http://www.w3.org/2000/svg" xmlns:xlink="http://www.w3.org/1999/xlink">
    <title>remi.rocks</title>
    <g id="a" stroke="none" stroke-width="1" fill="none" fill-rule="evenodd">
        <g id="Artboard-Copy-5" transform="translate(-402.000000, -165.000000)" fill="#CB11FC" fill-rule="nonzero">
            <path d="M409.184,188 L409.184,182.423 L412.484,188 L420.734,188 L416.609,180.74 C417.159,180.344 417.654,179.86 418.094,179.288 C418.468,178.782 418.809,178.144 419.117,177.374 C419.425,176.604 419.579,175.669 419.579,174.569 C419.579,173.183 419.3315,171.9565 418.8365,170.8895 C418.3415,169.8225 417.654,168.926 416.774,168.2 C415.894,167.474 414.8545,166.924 413.6555,166.55 C412.4565,166.176 411.153,165.989 409.745,165.989 L409.745,165.989 L402.155,165.989 L402.155,188 L409.184,188 Z M409.547,176.813 L409.184,176.813 L409.184,171.929 L409.547,171.929 C410.383,171.929 411.0925,172.116 411.6755,172.49 C412.2585,172.864 412.55,173.491 412.55,174.371 C412.55,175.251 412.2585,175.878 411.6755,176.252 C411.0925,176.626 410.383,176.813 409.547,176.813 L409.547,176.813 Z M435.251289,188 L435.251289,182.225 L429.080289,182.225 L429.080289,179.684 L434.921289,179.684 L434.921289,174.206 L429.080289,174.206 L429.080289,171.764 L435.020289,171.764 L435.020289,165.989 L422.051289,165.989 L422.051289,188 L435.251289,188 Z M444.917577,188 L444.917577,180.08 L449.438577,186.68 L453.926577,180.08 L453.926577,188 L460.955577,188 L460.955577,165.989 L455.147577,165.989 L449.438577,174.437 L443.696577,165.989 L437.888577,165.989 L437.888577,188 L444.917577,188 Z M471.380866,188 L471.380866,165.989 L463.922866,165.989 L463.922866,188 L471.380866,188 Z M481.245154,188 L481.245154,182.489 L474.183154,182.489 L474.183154,188 L481.245154,188 Z M491.076443,188 L491.076443,182.423 L494.376443,188 L502.626443,188 L498.501443,180.74 C499.051443,180.344 499.546443,179.86 499.986443,179.288 C500.360443,178.782 500.701443,178.144 501.009443,177.374 C501.317443,176.604 501.471443,175.669 501.471443,174.569 C501.471443,173.183 501.223943,171.9565 500.728943,170.8895 C500.233943,169.8225 499.546443,168.926 498.666443,168.2 C497.786443,167.474 496.746943,166.924 495.547943,166.55 C494.348943,166.176 493.045443,165.989 491.637443,165.989 L491.637443,165.989 L484.047443,165.989 L484.047443,188 L491.076443,188 Z M491.439443,176.813 L491.076443,176.813 L491.076443,171.929 L491.439443,171.929 C492.275443,171.929 492.984943,172.116 493.567943,172.49 C494.150943,172.864 494.442443,173.491 494.442443,174.371 C494.442443,175.251 494.150943,175.878 493.567943,176.252 C492.984943,176.626 492.275443,176.813 491.439443,176.813 L491.439443,176.813 Z M514.998732,188.561 C516.582732,188.561 518.078732,188.2585 519.486732,187.6535 C520.894732,187.0485 522.121232,186.2235 523.166232,185.1785 C524.211232,184.1335 525.036232,182.907 525.641232,181.499 C526.246232,180.091 526.548732,178.595 526.548732,177.011 C526.548732,175.427 526.246232,173.931 525.641232,172.523 C525.036232,171.115 524.211232,169.8885 523.166232,168.8435 C522.121232,167.7985 520.894732,166.9735 519.486732,166.3685 C518.078732,165.7635 516.582732,165.461 514.998732,165.461 C513.414732,165.461 511.918732,165.7635 510.510732,166.3685 C509.102732,166.9735 507.876232,167.7985 506.831232,168.8435 C505.786232,169.8885 504.961232,171.115 504.356232,172.523 C503.751232,173.931 503.448732,175.427 503.448732,177.011 C503.448732,178.595 503.751232,180.091 504.356232,181.499 C504.961232,182.907 505.786232,184.1335 506.831232,185.1785 C507.876232,186.2235 509.102732,187.0485 510.510732,187.6535 C511.918732,188.2585 513.414732,188.561 514.998732,188.561 Z M514.998732,181.631 C514.360732,181.631 513.761232,181.51 513.200232,181.268 C512.639232,181.026 512.149732,180.696 511.731732,180.278 C511.313732,179.86 510.983732,179.3705 510.741732,178.8095 C510.499732,178.2485 510.378732,177.649 510.378732,177.011 C510.378732,176.373 510.499732,175.7735 510.741732,175.2125 C510.983732,174.6515 511.313732,174.162 511.731732,173.744 C512.149732,173.326 512.639232,172.996 513.200232,172.754 C513.761232,172.512 514.360732,172.391 514.998732,172.391 C515.636732,172.391 516.236232,172.512 516.797232,172.754 C517.358232,172.996 517.847732,173.326 518.265732,173.744 C518.683732,174.162 519.013732,174.6515 519.255732,175.2125 C519.497732,175.7735 519.618732,176.373 519.618732,177.011 C519.618732,177.649 519.497732,178.2485 519.255732,178.8095 C519.013732,179.3705 518.683732,179.86 518.265732,180.278 C517.847732,180.696 517.358232,181.026 516.797232,181.268 C516.236232,181.51 515.636732,181.631 514.998732,181.631 Z M540.40602,188.561 C541.68202,188.561 542.81502,188.429 543.80502,188.165 C544.79502,187.901 545.64202,187.615 546.34602,187.307 C547.16002,186.933 547.86402,186.504 548.45802,186.02 L548.45802,186.02 L544.99302,179.915 C544.66302,180.245 544.27802,180.531 543.83802,180.773 C543.46402,180.993 543.00202,181.191 542.45202,181.367 C541.90202,181.543 541.27502,181.631 540.57102,181.631 C539.86702,181.631 539.21802,181.51 538.62402,181.268 C538.03002,181.026 537.51302,180.696 537.07302,180.278 C536.63302,179.86 536.28652,179.3705 536.03352,178.8095 C535.78052,178.2485 535.65402,177.649 535.65402,177.011 C535.65402,176.373 535.77502,175.7735 536.01702,175.2125 C536.25902,174.6515 536.59452,174.162 537.02352,173.744 C537.45252,173.326 537.95302,172.996 538.52502,172.754 C539.09702,172.512 539.72402,172.391 540.40602,172.391 C541.06602,172.391 541.65452,172.4735 542.17152,172.6385 C542.68852,172.8035 543.13402,172.974 543.50802,173.15 C543.92602,173.392 544.31102,173.645 544.66302,173.909 L544.66302,173.909 L548.12802,167.804 C547.53402,167.386 546.83002,167.001 546.01602,166.649 C545.31202,166.341 544.47052,166.066 543.49152,165.824 C542.51252,165.582 541.39602,165.461 540.14202,165.461 C538.55802,165.461 537.06202,165.7305 535.65402,166.2695 C534.24602,166.8085 533.01402,167.584 531.95802,168.596 C530.90202,169.608 530.06602,170.8235 529.45002,172.2425 C528.83402,173.6615 528.52602,175.251 528.52602,177.011 C528.52602,178.727 528.82302,180.2945 529.41702,181.7135 C530.01102,183.1325 530.83602,184.348 531.89202,185.36 C532.94802,186.372 534.20202,187.1585 535.65402,187.7195 C537.10602,188.2805 538.69002,188.561 540.40602,188.561 Z M557.068309,188 L557.068309,181.202 L561.754309,188 L570.235309,188 L562.084309,176.054 L569.839309,165.989 L561.226309,165.989 L557.068309,171.071 L557.068309,165.989 L549.940309,165.989 L549.940309,188 L557.068309,188 Z M576.931597,188.561 C578.317597,188.561 579.516597,188.3795 580.528597,188.0165 C581.540597,187.6535 582.371097,187.1585 583.020097,186.5315 C583.669097,185.9045 584.147597,185.1675 584.455597,184.3205 C584.763597,183.4735 584.917597,182.566 584.917597,181.598 C584.917597,180.674 584.769097,179.838 584.472097,179.09 C584.175097,178.342 583.812097,177.671 583.383097,177.077 C582.954097,176.483 582.481097,175.955 581.964097,175.493 C581.447097,175.031 580.974097,174.624 580.545097,174.272 C580.116097,173.92 579.753097,173.612 579.456097,173.348 C579.159097,173.084 579.010597,172.864 579.010597,172.688 C579.010597,172.49 579.076597,172.336 579.208597,172.226 C579.340597,172.116 579.494597,172.039 579.670597,171.995 C579.846597,171.951 580.033597,171.9235 580.231597,171.9125 C580.429597,171.9015 580.594597,171.896 580.726597,171.896 C580.968597,171.896 581.199597,171.907 581.419597,171.929 C581.639597,171.951 581.837597,171.973 582.013597,171.995 C582.233597,172.017 582.431597,172.039 582.607597,172.061 L582.607597,172.061 L582.607597,165.89 C582.145597,165.824 581.672597,165.758 581.188597,165.692 C580.770597,165.648 580.297597,165.5985 579.769597,165.5435 C579.241597,165.4885 578.713597,165.461 578.185597,165.461 C577.173597,165.461 576.222097,165.5985 575.331097,165.8735 C574.440097,166.1485 573.664597,166.55 573.004597,167.078 C572.344597,167.606 571.827597,168.266 571.453597,169.058 C571.079597,169.85 570.892597,170.763 570.892597,171.797 C570.892597,172.721 571.046597,173.5405 571.354597,174.2555 C571.662597,174.9705 572.053097,175.614 572.526097,176.186 C572.999097,176.758 573.505097,177.264 574.044097,177.704 C574.583097,178.144 575.089097,178.5455 575.562097,178.9085 C576.035097,179.2715 576.425597,179.6015 576.733597,179.8985 C577.041597,180.1955 577.195597,180.487 577.195597,180.773 C577.195597,181.521 576.689597,181.895 575.677597,181.895 C575.105597,181.895 574.539097,181.862 573.978097,181.796 C573.417097,181.73 572.916597,181.642 572.476597,181.532 C571.948597,181.444 571.442597,181.323 570.958597,181.169 L570.958597,181.169 L570.958597,187.769 C571.486597,187.923 572.069597,188.055 572.707597,188.165 C573.257597,188.275 573.890097,188.3685 574.605097,188.4455 C575.320097,188.5225 576.095597,188.561 576.931597,188.561 Z" id="remi.rocks"></path>
        </g>
    </g>
</svg>